<svg clip-rule="evenodd" fill-rule="evenodd" stroke-linejoin="round" stroke-miterlimit="1.414" viewBox="0 0 30 56" xmlns="http://www.w3.org/2000/svg"><path d="M12.227 45.946c1.938-1.216 3.764-2.115 5.234-2.834 2.353-1.154 4.375-2.154 5.88-3.785 7.385-7.994 5.506-20.276 5.425-20.795l-.208-1.268-.597 1.138c-.03.06-3.36 6.337-9.197 10.694a73.021 73.021 0 01-2.435 1.683c-1.757 1.185-3.95 2.655-6.59 4.723C1.062 42.31.963 53.572.963 54.048v1.212l.765-.943c.008-.018 2.985-3.652 10.499-8.371zm-1.841-22.779c3.98-2.496 6.804-4.44 8.638-6.417 5.753-6.23 4.218-14.462 4.145-14.808L22.935.74l-.566 1.081c-.018.04-2.545 4.837-7.06 8.203a45.25 45.25 0 01-1.761 1.223c-1.393.939-3.15 2.121-5.188 3.717-6.718 5.265-6.8 13.99-6.8 14.359v1.215l.766-.948c.013-.017 2.227-2.76 8.06-6.423z" fill="#4ed401" fill-rule="nonzero"/></svg>